<svg width="27" height="26" viewBox="0 0 27 26" fill="none" xmlns="http://www.w3.org/2000/svg">
<g id="bell">
<g id="Path">
<path d="M11.2734 5.41667C11.2734 4.22005 12.2435 3.25 13.4401 3.25C14.6367 3.25 15.6068 4.22005 15.6068 5.41667C18.142 6.61543 19.8086 9.11543 19.9401 11.9167V15.1667C20.1054 16.5325 20.9096 17.7387 22.1068 18.4167H4.77344C5.97064 17.7387 6.77477 16.5325 6.9401 15.1667V11.9167C7.07159 9.11543 8.73825 6.61543 11.2734 5.41667" stroke="#4B465C" stroke-width="2" stroke-linecap="round" stroke-linejoin="round"/>
<path d="M11.2734 5.41667C11.2734 4.22005 12.2435 3.25 13.4401 3.25C14.6367 3.25 15.6068 4.22005 15.6068 5.41667C18.142 6.61543 19.8086 9.11543 19.9401 11.9167V15.1667C20.1054 16.5325 20.9096 17.7387 22.1068 18.4167H4.77344C5.97064 17.7387 6.77477 16.5325 6.9401 15.1667V11.9167C7.07159 9.11543 8.73825 6.61543 11.2734 5.41667" stroke="white" stroke-opacity="0.2" stroke-width="2" stroke-linecap="round" stroke-linejoin="round"/>
</g>
<g id="Path_2">
<path d="M10.1904 18.417V19.5003C10.1904 21.2953 11.6455 22.7503 13.4404 22.7503C15.2354 22.7503 16.6904 21.2953 16.6904 19.5003V18.417" stroke="#4B465C" stroke-width="2" stroke-linecap="round" stroke-linejoin="round"/>
<path d="M10.1904 18.417V19.5003C10.1904 21.2953 11.6455 22.7503 13.4404 22.7503C15.2354 22.7503 16.6904 21.2953 16.6904 19.5003V18.417" stroke="white" stroke-opacity="0.2" stroke-width="2" stroke-linecap="round" stroke-linejoin="round"/>
</g>
</g>
</svg>
