<svg width="22" height="23" viewBox="0 0 22 23" fill="none" xmlns="http://www.w3.org/2000/svg">
<g id="color-swatch">
<path id="Path" d="M17.417 2.8125H13.7503C12.7378 2.8125 11.917 3.63331 11.917 4.64583V15.6458C11.917 17.6709 13.5586 19.3125 15.5837 19.3125C17.6087 19.3125 19.2503 17.6709 19.2503 15.6458V4.64583C19.2503 3.63331 18.4295 2.8125 17.417 2.8125" stroke="#185B6A" stroke-opacity="0.5" stroke-width="1.5" stroke-linecap="round" stroke-linejoin="round"/>
<path id="Path_2" d="M11.9171 6.7998L10.0837 4.96646C9.36783 4.25076 8.20733 4.25076 7.49141 4.96646L4.89908 7.5588C4.18338 8.27471 4.18338 9.43521 4.89908 10.1511L13.1491 18.4011" stroke="#185B6A" stroke-opacity="0.5" stroke-width="1.5" stroke-linecap="round" stroke-linejoin="round"/>
<path id="Path_3" d="M6.69167 11.9795H4.58333C3.57081 11.9795 2.75 12.8003 2.75 13.8128V17.4795C2.75 18.492 3.57081 19.3128 4.58333 19.3128H15.5833" stroke="#185B6A" stroke-opacity="0.5" stroke-width="1.5" stroke-linecap="round" stroke-linejoin="round"/>
<path id="Path_4" d="M15.5833 15.6461V15.6553" stroke="#185B6A" stroke-opacity="0.5" stroke-width="1.5" stroke-linecap="round" stroke-linejoin="round"/>
</g>
</svg>
